<?xml version="1.0" encoding="UTF-8" standalone="no"?>
<!-- Created with Inkscape (http://www.inkscape.org/) -->

<svg
   xmlns:dc="http://purl.org/dc/elements/1.1/"
   xmlns:cc="http://creativecommons.org/ns#"
   xmlns:rdf="http://www.w3.org/1999/02/22-rdf-syntax-ns#"
   xmlns:svg="http://www.w3.org/2000/svg"
   xmlns="http://www.w3.org/2000/svg"
   xmlns:sodipodi="http://sodipodi.sourceforge.net/DTD/sodipodi-0.dtd"
   xmlns:inkscape="http://www.inkscape.org/namespaces/inkscape"
   width="400"
   height="400"
   viewBox="0 0 105.83333 105.83333"
   version="1.1"
   id="svg8"
   inkscape:version="0.92.3 (2405546, 2018-03-11)"
   sodipodi:docname="ui_tileset.svg"
   inkscape:export-filename="C:\Users\Phlosioneer\Documents\Source\Processing\Blue Lagoon\data\ui_tileset.png"
   inkscape:export-xdpi="96"
   inkscape:export-ydpi="96">
  <defs
     id="defs2">
    <mask
       maskUnits="userSpaceOnUse"
       id="mask836">
      <g
         id="g842">
        <rect
           y="257.31247"
           x="0"
           height="19.84375"
           width="19.84375"
           id="rect838"
           style="fill:#ffffff;stroke:none;stroke-width:0.26458332" />
        <circle
           cy="267.23434"
           cx="9.921875"
           id="circle840"
           style="fill:#000000;fill-opacity:1;stroke:#ffffff;stroke-width:0.5291667;stroke-miterlimit:4;stroke-dasharray:none;stroke-opacity:1"
           r="9.6572914" />
      </g>
    </mask>
  </defs>
  <sodipodi:namedview
     id="base"
     pagecolor="#ffffff"
     bordercolor="#666666"
     borderopacity="1.0"
     inkscape:pageopacity="0.0"
     inkscape:pageshadow="2"
     inkscape:zoom="2.6907894"
     inkscape:cx="103.23858"
     inkscape:cy="279.90957"
     inkscape:document-units="px"
     inkscape:current-layer="layer1"
     showgrid="true"
     units="px"
     inkscape:window-width="1920"
     inkscape:window-height="1017"
     inkscape:window-x="1072"
     inkscape:window-y="580"
     inkscape:window-maximized="1">
    <inkscape:grid
       type="xygrid"
       id="grid4545"
       empspacing="2"
       spacingx="6.6145831"
       spacingy="6.6145831"
       snapvisiblegridlinesonly="false"
       units="px" />
  </sodipodi:namedview>
  <metadata
     id="metadata5">
    <rdf:RDF>
      <cc:Work
         rdf:about="">
        <dc:format>image/svg+xml</dc:format>
        <dc:type
           rdf:resource="http://purl.org/dc/dcmitype/StillImage" />
        <dc:title />
      </cc:Work>
    </rdf:RDF>
  </metadata>
  <g
     inkscape:label="Layer 1"
     inkscape:groupmode="layer"
     id="layer1"
     transform="translate(0,-191.16664)">
    <g
       id="g4614"
       transform="translate(2.9802322e-7,-79.375)" />
    <g
       id="g4626"
       transform="translate(19.843751,-59.53126)" />
    <path
       id="path4664-5-1"
       style="fill:#e1cbf0;fill-opacity:1;stroke:#9600ff;stroke-width:0.35272297;stroke-miterlimit:4;stroke-dasharray:none;stroke-opacity:1"
       d="m 39.517541,205.45624 h 1.9e-5 c -4e-6,-0.48698 -0.39482,-0.88176 -0.881849,-0.88176 H 31.777247 13.17471 1.0689025 c -0.23388102,0 -0.45818202,0.0929 -0.62356202,0.25826 -0.165378,0.16536 -0.258286,0.38964 -0.258287,0.6235 -0.0023,1.45904 -0.0037,2.91809 -0.0047,4.38556 -0.0017,2.55487 -0.0021,18.36174 -0.0039,21.01214 -0.0029,4.17275 -0.0035,8.17199 0.0029,12.17124 1e-6,0.23386 0.09291,0.45814 0.258287,0.6235 0.16538,0.16536 0.389681,0.25826 0.62356202,0.25826 h 10.3417785 18.274808 8.950242 c 0.487029,0 0.881845,-0.39478 0.881848,-0.88176 h -1.9e-5 c 0.004,-3.99925 0.0081,-7.99849 0.0086,-12.17124 0.0032,-2.53712 0.0029,-18.23657 0.0013,-20.6844 -0.0011,-1.57807 -0.0026,-3.14568 -0.0042,-4.7133 z"
       inkscape:connector-curvature="0"
       sodipodi:nodetypes="ccsccsccscccsccscccscc" />
    <path
       id="path4664-5-1-6"
       style="fill:#e1cbf0;fill-opacity:1;stroke:#9600ff;stroke-width:0.35272297;stroke-miterlimit:4;stroke-dasharray:none;stroke-opacity:1"
       d="m 50.1503,243.90694 c 0.569732,-5.4e-4 1.138956,-0.001 1.708188,-0.002 v 3.8e-4 2e-5 c 0.487027,-1e-5 0.881844,-0.39478 0.881844,-0.88177 v -37.56332 c 0,-0.23386 -0.09291,-0.45814 -0.258285,-0.6235 -0.165375,-0.16536 -0.389678,-0.25826 -0.623559,-0.25826 l -1.708141,-0.002 -6.436208,-0.007 c -0.992659,6.7e-4 -1.982691,0.002 -2.972717,0.003 -0.233881,0 -0.458184,0.0929 -0.623557,0.25826 -0.165375,0.16536 -0.258285,0.38965 -0.258285,0.6235 v 37.56334 c 0,0.48699 0.394815,0.88176 0.881842,0.88177 v -2e-5 c 1.011803,0.001 2.023607,0.002 3.038223,0.003 z"
       inkscape:connector-curvature="0"
       sodipodi:nodetypes="ccccssccccccsscccc" />
    <path
       id="path4664-5-1-6-9"
       style="fill:#e1cbf0;fill-opacity:1;stroke:#9600ff;stroke-width:0.35272297;stroke-miterlimit:4;stroke-dasharray:none;stroke-opacity:1"
       d="m 39.517729,193.9377 c -5.29e-4,-0.56968 -0.0014,-1.13885 -0.002,-1.70803 h 3.53e-4 1.9e-5 c -5e-6,-0.48698 -0.394816,-0.88176 -0.88185,-0.88176 H 1.0674985 c -0.23388102,0 -0.45818302,0.0929 -0.62356202,0.25826 -0.165378,0.16536 -0.258287,0.38964 -0.258287,0.6235 -9.34e-4,0.56916 -0.0017,1.13833 -0.0023,1.70798 l -0.0069,6.4356 c 8e-4,0.99257 0.0019,1.98251 0.0035,2.97244 0,0.23386 0.09291,0.45814 0.258287,0.6235 0.16538,0.16536 0.389682,0.25827 0.62356202,0.25827 H 38.628592 c 0.487033,0 0.881844,-0.39478 0.881851,-0.88177 h -1.9e-5 c 0.0014,-1.0117 0.002,-2.02341 0.0027,-3.03794 z"
       inkscape:connector-curvature="0"
       sodipodi:nodetypes="ccccssccccccsscccc" />
    <path
       id="path4664-5-1-6-0"
       style="fill:#e1cbf0;fill-opacity:1;stroke:#9600ff;stroke-width:0.35272297;stroke-miterlimit:4;stroke-dasharray:none;stroke-opacity:1"
       d="m 50.150301,204.22746 c 0.569731,-5.3e-4 1.138955,-0.001 1.708188,-0.002 v 3.5e-4 2e-5 c 0.487026,-1e-5 0.881844,-0.39478 0.881844,-0.88177 v -11.11037 c 0,-0.23386 -0.09291,-0.45814 -0.258286,-0.6235 -0.165375,-0.16537 -0.389677,-0.25826 -0.623558,-0.25826 l -1.708142,-0.002 -6.436208,-0.007 c -0.992659,6.6e-4 -1.982691,0.002 -2.972717,0.003 -0.233881,0 -0.458184,0.0929 -0.623557,0.25826 -0.165375,0.16536 -0.258285,0.38964 -0.258285,0.6235 v 11.11042 c 0,0.48698 0.394815,0.88175 0.881842,0.88176 v -10e-6 c 1.011803,10e-4 2.023607,0.002 3.038223,0.003 z"
       inkscape:connector-curvature="0"
       sodipodi:nodetypes="ccccssccccccsscccc" />
    <circle
       style="fill:#688ea9;fill-opacity:1;stroke:#124e78;stroke-width:2.11666656;stroke-miterlimit:4;stroke-dasharray:none;stroke-opacity:1"
       id="path4547"
       cx="59.53125"
       cy="197.78122"
       r="5.5562496" />
    <circle
       style="fill:#d5c99d;fill-opacity:1;stroke:#b39c4d;stroke-width:2.11666656;stroke-miterlimit:4;stroke-dasharray:none;stroke-opacity:1"
       id="path4547-0"
       cx="59.53125"
       cy="211.01039"
       r="5.5562496" />
    <circle
       style="fill:#a7b38a;fill-opacity:1;stroke:#768948;stroke-width:2.11666656;stroke-miterlimit:4;stroke-dasharray:none;stroke-opacity:1"
       id="path4547-9"
       cx="59.531246"
       cy="237.46872"
       r="5.5562496" />
    <circle
       style="fill:#af7b79;fill-opacity:1;stroke:#6e0e0a;stroke-width:2.11666656;stroke-miterlimit:4;stroke-dasharray:none;stroke-opacity:1"
       id="path4547-4"
       cx="59.531246"
       cy="224.23956"
       r="5.5562496" />
    <path
       sodipodi:type="star"
       style="fill:#a7b38a;fill-opacity:1;stroke:#768948;stroke-width:0.25208673;stroke-miterlimit:4;stroke-dasharray:none;stroke-opacity:1"
       id="path4646"
       sodipodi:sides="6"
       sodipodi:cx="72.747353"
       sodipodi:cy="237.46872"
       sodipodi:r1="6.3021684"
       sodipodi:r2="3.1510842"
       sodipodi:arg1="1.5707963"
       sodipodi:arg2="2.0943951"
       inkscape:flatsided="false"
       inkscape:rounded="0"
       inkscape:randomized="0"
       d="m 72.747353,243.77089 -1.575542,-3.57325 -3.882296,0.42216 2.306753,-3.15108 -2.306753,-3.15108 3.882296,0.42216 1.575541,-3.57325 1.575543,3.57325 3.882295,-0.42216 -2.306753,3.15108 2.306754,3.15108 -3.882296,-0.42216 z"
       inkscape:transform-center-y="-5.4981997e-006"
       inkscape:transform-center-x="1.1582681e-006" />
    <path
       sodipodi:type="star"
       style="fill:#af7b79;fill-opacity:1;stroke:#6e0e0a;stroke-width:0.25208673;stroke-miterlimit:4;stroke-dasharray:none;stroke-opacity:1"
       id="path4646-9"
       sodipodi:sides="6"
       sodipodi:cx="72.747353"
       sodipodi:cy="224.23955"
       sodipodi:r1="6.3021684"
       sodipodi:r2="3.1510842"
       sodipodi:arg1="1.5707963"
       sodipodi:arg2="2.0943951"
       inkscape:flatsided="false"
       inkscape:rounded="0"
       inkscape:randomized="0"
       d="m 72.747353,230.54172 -1.575542,-3.57325 -3.882296,0.42216 2.306753,-3.15108 -2.306753,-3.15109 3.882296,0.42217 1.575541,-3.57325 1.575543,3.57325 3.882295,-0.42217 -2.306753,3.15109 2.306754,3.15108 -3.882296,-0.42216 z"
       inkscape:transform-center-y="-5.4981997e-006"
       inkscape:transform-center-x="1.1582681e-006" />
    <path
       sodipodi:type="star"
       style="fill:#d5c99d;fill-opacity:1;stroke:#b39c4d;stroke-width:0.25208673;stroke-miterlimit:4;stroke-dasharray:none;stroke-opacity:1"
       id="path4646-90"
       sodipodi:sides="6"
       sodipodi:cx="72.747353"
       sodipodi:cy="211.01039"
       sodipodi:r1="6.3021684"
       sodipodi:r2="3.1510842"
       sodipodi:arg1="1.5707963"
       sodipodi:arg2="2.0943951"
       inkscape:flatsided="false"
       inkscape:rounded="0"
       inkscape:randomized="0"
       d="m 72.747353,217.31256 -1.575542,-3.57325 -3.882296,0.42217 2.306753,-3.15109 -2.306753,-3.15108 3.882296,0.42216 1.575541,-3.57325 1.575543,3.57325 3.882295,-0.42216 -2.306753,3.15108 2.306754,3.15109 -3.882296,-0.42217 z"
       inkscape:transform-center-y="-5.4981997e-006"
       inkscape:transform-center-x="1.1582681e-006" />
    <path
       sodipodi:type="star"
       style="fill:#688ea9;fill-opacity:1;stroke:#124e78;stroke-width:0.25208673;stroke-miterlimit:4;stroke-dasharray:none;stroke-opacity:1"
       id="path4646-1"
       sodipodi:sides="6"
       sodipodi:cx="72.747353"
       sodipodi:cy="197.78122"
       sodipodi:r1="6.3021684"
       sodipodi:r2="3.1510842"
       sodipodi:arg1="1.5707963"
       sodipodi:arg2="2.0943951"
       inkscape:flatsided="false"
       inkscape:rounded="0"
       inkscape:randomized="0"
       d="m 72.747353,204.08339 -1.575542,-3.57325 -3.882296,0.42216 2.306753,-3.15108 -2.306753,-3.15108 3.882296,0.42216 1.575541,-3.57325 1.575543,3.57325 3.882295,-0.42216 -2.306753,3.15108 2.306754,3.15108 -3.882296,-0.42216 z"
       inkscape:transform-center-y="-5.4981997e-006"
       inkscape:transform-center-x="1.1582681e-006" />
  </g>
</svg>
